<svg width="24" height="24" viewBox="0 0 24 24" fill="none" xmlns="http://www.w3.org/2000/svg">
<g id="alarm-clock 1" clip-path="url(#clip0_502_1225)">
<path id="Vector" d="M12.5 2.025V0.5C12.5 0.224 12.276 0 12 0C11.724 0 11.5 0.224 11.5 0.5V2.025C5.667 2.289 1 7.103 1 13C1 15.901 2.137 18.535 3.978 20.502C2.921 20.948 2 21.892 2 23.5C2 23.776 2.224 24 2.5 24C2.776 24 3 23.776 3 23.5C3 21.95 4.121 21.443 4.779 21.277C6.714 22.967 9.236 24 12 24C14.764 24 17.287 22.967 19.221 21.277C19.879 21.442 21 21.949 21 23.5C21 23.776 21.224 24 21.5 24C21.776 24 22 23.776 22 23.5C22 21.892 21.08 20.948 20.022 20.502C21.863 18.535 23 15.901 23 13C23 7.103 18.333 2.289 12.5 2.025ZM12 23C6.486 23 2 18.514 2 13C2 7.486 6.486 3 12 3C17.514 3 22 7.486 22 13C22 18.514 17.514 23 12 23ZM16.3 15.1C16.521 15.266 16.566 15.579 16.4 15.8C16.302 15.931 16.152 16 16 16C15.896 16 15.791 15.967 15.701 15.9L11.701 12.9C11.575 12.806 11.501 12.657 11.501 12.5V6.5C11.501 6.224 11.725 6 12.001 6C12.277 6 12.501 6.224 12.501 6.5V12.25L16.301 15.1H16.3ZM1 4.5C1 4.776 0.776 5 0.5 5C0.224 5 0 4.776 0 4.5C0 1.998 1.977 0.038 4.5 0.038C4.776 0.038 5 0.262 5 0.538C5 0.814 4.776 1.038 4.5 1.038C2.227 1.038 1 2.822 1 4.5ZM24 4.5C24 4.776 23.776 5 23.5 5C23.224 5 23 4.776 23 4.5C23 2.821 21.773 1.038 19.5 1.038C19.224 1.038 19 0.814 19 0.538C19 0.262 19.224 0.038 19.5 0.038C22.023 0.038 24 1.998 24 4.5Z" fill="#565ADD"/>
</g>
<defs>
<clipPath id="clip0_502_1225">
<rect width="24" height="24" fill="white"/>
</clipPath>
</defs>
</svg>
