<svg width="18" height="18" viewBox="0 0 18 18" fill="none" xmlns="http://www.w3.org/2000/svg">
<g id="alarm-clock 1" clip-path="url(#clip0_556_1442)">
<path id="Vector" d="M9.375 1.51875V0.375C9.375 0.168 9.207 0 9 0C8.793 0 8.625 0.168 8.625 0.375V1.51875C4.25025 1.71675 0.75 5.32725 0.75 9.75C0.75 11.9257 1.60275 13.9013 2.9835 15.3765C2.19075 15.711 1.5 16.419 1.5 17.625C1.5 17.832 1.668 18 1.875 18C2.082 18 2.25 17.832 2.25 17.625C2.25 16.4625 3.09075 16.0823 3.58425 15.9578C5.0355 17.2253 6.927 18 9 18C11.073 18 12.9653 17.2253 14.4158 15.9578C14.9093 16.0815 15.75 16.4618 15.75 17.625C15.75 17.832 15.918 18 16.125 18C16.332 18 16.5 17.832 16.5 17.625C16.5 16.419 15.81 15.711 15.0165 15.3765C16.3972 13.9013 17.25 11.9257 17.25 9.75C17.25 5.32725 13.7498 1.71675 9.375 1.51875ZM9 17.25C4.8645 17.25 1.5 13.8855 1.5 9.75C1.5 5.6145 4.8645 2.25 9 2.25C13.1355 2.25 16.5 5.6145 16.5 9.75C16.5 13.8855 13.1355 17.25 9 17.25ZM12.225 11.325C12.3907 11.4495 12.4245 11.6842 12.3 11.85C12.2265 11.9482 12.114 12 12 12C11.922 12 11.8433 11.9752 11.7758 11.925L8.77575 9.675C8.68125 9.6045 8.62575 9.49275 8.62575 9.375V4.875C8.62575 4.668 8.79375 4.5 9.00075 4.5C9.20775 4.5 9.37575 4.668 9.37575 4.875V9.1875L12.2257 11.325H12.225ZM0.75 3.375C0.75 3.582 0.582 3.75 0.375 3.75C0.168 3.75 0 3.582 0 3.375C0 1.4985 1.48275 0.0285 3.375 0.0285C3.582 0.0285 3.75 0.1965 3.75 0.4035C3.75 0.6105 3.582 0.7785 3.375 0.7785C1.67025 0.7785 0.75 2.1165 0.75 3.375ZM18 3.375C18 3.582 17.832 3.75 17.625 3.75C17.418 3.75 17.25 3.582 17.25 3.375C17.25 2.11575 16.3298 0.7785 14.625 0.7785C14.418 0.7785 14.25 0.6105 14.25 0.4035C14.25 0.1965 14.418 0.0285 14.625 0.0285C16.5173 0.0285 18 1.4985 18 3.375Z" fill="#596386"/>
</g>
<defs>
<clipPath id="clip0_556_1442">
<rect width="18" height="18" fill="white"/>
</clipPath>
</defs>
</svg>
