<svg width="18" height="18" viewBox="0 0 18 18" fill="none" xmlns="http://www.w3.org/2000/svg">
<g clip-path="url(#clip0_588_1472)">
<path d="M17.79 7.0425C17.9325 7.68 18 8.34 18 9C18 13.965 13.965 18 9 18C4.035 18 0 13.965 0 9C0 4.035 4.035 0 9 0C9.66 0 10.32 0.075 10.9575 0.21C11.16 0.255 11.2875 0.4575 11.2425 0.66C11.1975 0.8625 10.995 0.99 10.7925 0.945C10.2075 0.8175 9.6 0.75 9 0.75C4.4475 0.75 0.75 4.4475 0.75 9C0.75 13.5525 4.4475 17.25 9 17.25C13.5525 17.25 17.25 13.5525 17.25 9C17.25 8.3925 17.1825 7.7925 17.055 7.2075C17.01 7.005 17.1375 6.8025 17.34 6.7575C17.5425 6.7125 17.745 6.84 17.79 7.0425ZM10.05 3.855C10.2525 3.8925 10.4475 3.765 10.4925 3.5625C10.53 3.36 10.4025 3.165 10.2 3.12C9.81 3.0375 9.405 3 9 3C5.6925 3 3 5.6925 3 9C3 12.3075 5.6925 15 9 15C12.3075 15 15 12.3075 15 9C15 8.595 14.9625 8.19 14.88 7.8C14.8425 7.5975 14.64 7.47 14.4375 7.5075C14.235 7.5525 14.1 7.7475 14.145 7.95C14.2125 8.295 14.25 8.6475 14.25 9C14.25 11.895 11.895 14.25 9 14.25C6.105 14.25 3.75 11.895 3.75 9C3.75 6.105 6.105 3.75 9 3.75C9.3525 3.75 9.705 3.7875 10.05 3.855ZM8.6775 6.7725C8.88 6.7425 9.0225 6.555 8.9925 6.345C8.9625 6.135 8.775 5.9925 8.565 6.03C7.095 6.24 5.9925 7.515 5.9925 9C5.9925 10.6575 7.335 12 8.9925 12C10.4775 12 11.7525 10.8975 11.9625 9.4275C11.9925 9.225 11.85 9.03 11.6475 9C11.445 8.97 11.25 9.1125 11.22 9.315C11.0625 10.4175 10.1025 11.2425 8.9925 11.2425C7.755 11.2425 6.7425 10.23 6.7425 8.9925C6.7425 7.8825 7.5675 6.9225 8.67 6.765L8.6775 6.7725ZM12 5.4675V3.2475C12 2.745 12.195 2.2725 12.5475 1.92L14.3625 0.1125C14.4675 0.0075 14.6325 -0.03 14.7675 0.03C14.91 0.09 15 0.225 15 0.375V3H17.625C17.775 3 17.91 3.09 17.97 3.2325C18.03 3.375 17.9925 3.5325 17.8875 3.6375L16.08 5.445C15.7275 5.7975 15.255 5.9925 14.7525 5.9925H12.5325L9.27 9.255C9.195 9.33 9.0975 9.3675 9.0075 9.3675C8.9175 9.3675 8.8125 9.33 8.745 9.255C8.595 9.105 8.595 8.8725 8.745 8.7225L12.0075 5.46L12 5.4675ZM12.75 5.25H14.7525C15.0525 5.25 15.3375 5.13 15.5475 4.92L16.7175 3.75H14.625C14.415 3.75 14.25 3.585 14.25 3.375V1.2825L13.08 2.4525C12.87 2.6625 12.75 2.9475 12.75 3.2475V5.25Z" fill="#596386"/>
</g>
<defs>
<clipPath id="clip0_588_1472">
<rect width="18" height="18" fill="white"/>
</clipPath>
</defs>
</svg>
