<svg width="24" height="25" viewBox="0 0 24 25" fill="none" xmlns="http://www.w3.org/2000/svg">
<g id="calendar-2 1">
<path id="Vector" d="M22.185 5.87901C21.935 4.87301 21.135 4.10701 20.147 3.92601C19.65 3.83501 19.147 3.75301 18.641 3.67901V2.22301C18.641 1.94701 18.417 1.72301 18.141 1.72301C17.865 1.72301 17.641 1.94701 17.641 2.22301V3.54501C13.938 3.09201 10.062 3.09201 6.35901 3.54501V2.22301C6.35901 1.94701 6.13501 1.72301 5.85901 1.72301C5.58301 1.72301 5.35901 1.94701 5.35901 2.22301V3.67901C4.85301 3.75301 4.35101 3.83501 3.85301 3.92601C2.86601 4.10701 2.06601 4.87301 1.81501 5.87901C0.721007 10.266 0.721007 15.715 1.81501 20.102C2.06501 21.108 2.86501 21.874 3.85201 22.055C6.47901 22.536 9.23901 22.777 11.999 22.777C14.759 22.777 17.52 22.536 20.146 22.055C21.133 21.874 21.933 21.108 22.184 20.102C23.278 15.715 23.279 10.266 22.185 5.87901ZM2.78701 6.12001C2.94301 5.49501 3.43201 5.01901 4.03401 4.90901C6.60301 4.43901 9.30201 4.20301 12.001 4.20301C14.7 4.20301 17.399 4.43801 19.968 4.90901C20.57 5.01901 21.059 5.49401 21.215 6.12001C21.36 6.69901 21.483 7.30301 21.588 7.92201H2.41301C2.51701 7.30201 2.64101 6.69901 2.78601 6.11901L2.78701 6.12001ZM21.215 19.86C21.059 20.485 20.57 20.961 19.968 21.071C14.831 22.011 9.17201 22.011 4.03401 21.071C3.43201 20.961 2.94301 20.486 2.78701 19.86C1.96701 16.574 1.79301 12.531 2.26501 8.92301H21.736C22.208 12.531 22.035 16.573 21.215 19.86Z" fill="#565ADD"/>
<path id="Vector_2" d="M7.48401 14.051C7.89822 14.051 8.23401 13.7152 8.23401 13.301C8.23401 12.8868 7.89822 12.551 7.48401 12.551C7.0698 12.551 6.73401 12.8868 6.73401 13.301C6.73401 13.7152 7.0698 14.051 7.48401 14.051Z" fill="#565ADD"/>
<path id="Vector_3" d="M11.999 14.051C12.4132 14.051 12.749 13.7152 12.749 13.301C12.749 12.8868 12.4132 12.551 11.999 12.551C11.5848 12.551 11.249 12.8868 11.249 13.301C11.249 13.7152 11.5848 14.051 11.999 14.051Z" fill="#565ADD"/>
<path id="Vector_4" d="M16.525 14.051C16.9392 14.051 17.275 13.7152 17.275 13.301C17.275 12.8868 16.9392 12.551 16.525 12.551C16.1108 12.551 15.775 12.8868 15.775 13.301C15.775 13.7152 16.1108 14.051 16.525 14.051Z" fill="#565ADD"/>
<path id="Vector_5" d="M7.48401 17.97C7.89822 17.97 8.23401 17.6342 8.23401 17.22C8.23401 16.8058 7.89822 16.47 7.48401 16.47C7.0698 16.47 6.73401 16.8058 6.73401 17.22C6.73401 17.6342 7.0698 17.97 7.48401 17.97Z" fill="#565ADD"/>
<path id="Vector_6" d="M11.999 17.97C12.4132 17.97 12.749 17.6342 12.749 17.22C12.749 16.8058 12.4132 16.47 11.999 16.47C11.5848 16.47 11.249 16.8058 11.249 17.22C11.249 17.6342 11.5848 17.97 11.999 17.97Z" fill="#565ADD"/>
<path id="Vector_7" d="M16.525 17.97C16.9392 17.97 17.275 17.6342 17.275 17.22C17.275 16.8058 16.9392 16.47 16.525 16.47C16.1108 16.47 15.775 16.8058 15.775 17.22C15.775 17.6342 16.1108 17.97 16.525 17.97Z" fill="#565ADD"/>
</g>
</svg>
