<svg width="24" height="25" viewBox="0 0 24 25" fill="none" xmlns="http://www.w3.org/2000/svg">
<g id="chart-simple 2" clip-path="url(#clip0_502_1215)">
<path id="Vector" d="M12 0.5C10.35 0.5 9 1.85 9 3.5V21.5C9 23.15 10.35 24.5 12 24.5C13.65 24.5 15 23.15 15 21.5V3.5C15 1.85 13.65 0.5 12 0.5ZM14 21.5C14 22.6 13.1 23.5 12 23.5C10.9 23.5 10 22.6 10 21.5V3.5C10 2.4 10.9 1.5 12 1.5C13.1 1.5 14 2.4 14 3.5V21.5ZM21 6.5C19.35 6.5 18 7.85 18 9.5V21.5C18 23.15 19.35 24.5 21 24.5C22.65 24.5 24 23.15 24 21.5V9.5C24 7.85 22.65 6.5 21 6.5ZM23 21.5C23 22.6 22.1 23.5 21 23.5C19.9 23.5 19 22.6 19 21.5V9.5C19 8.4 19.9 7.5 21 7.5C22.1 7.5 23 8.4 23 9.5V21.5ZM3 12.5C1.35 12.5 0 13.85 0 15.5V21.5C0 23.15 1.35 24.5 3 24.5C4.65 24.5 6 23.15 6 21.5V15.5C6 13.85 4.65 12.5 3 12.5ZM5 21.5C5 22.6 4.1 23.5 3 23.5C1.9 23.5 1 22.6 1 21.5V15.5C1 14.4 1.9 13.5 3 13.5C4.1 13.5 5 14.4 5 15.5V21.5Z" fill="#565ADD"/>
</g>
<defs>
<clipPath id="clip0_502_1215">
<rect width="24" height="24" fill="white" transform="translate(0 0.5)"/>
</clipPath>
</defs>
</svg>
