<svg width="36" height="36" viewBox="0 0 36 36" fill="none" xmlns="http://www.w3.org/2000/svg">
<g clip-path="url(#clip0_502_1150)">
<path d="M18 0C8.0745 0 0 8.0745 0 18C0 27.9255 8.0745 36 18 36C27.9255 36 36 27.9255 36 18C36 8.0745 27.9255 0 18 0ZM10.5 32.6955V31.5C10.5 27.3645 13.8645 24 18 24C22.1355 24 25.5 27.3645 25.5 31.5V32.6955C23.2485 33.849 20.6985 34.5 18 34.5C15.3015 34.5 12.7515 33.849 10.5 32.6955ZM27 31.8225V31.5C27 26.5365 22.9635 22.5 18 22.5C13.0365 22.5 9 26.5365 9 31.5V31.8225C4.488 28.875 1.5 23.7795 1.5 18C1.5 8.9025 8.9025 1.5 18 1.5C27.0975 1.5 34.5 8.9025 34.5 18C34.5 23.7795 31.512 28.875 27 31.8225ZM18 7.5C14.691 7.5 12 10.191 12 13.5C12 16.809 14.691 19.5 18 19.5C21.309 19.5 24 16.809 24 13.5C24 10.191 21.309 7.5 18 7.5ZM18 18C15.519 18 13.5 15.981 13.5 13.5C13.5 11.019 15.519 9 18 9C20.481 9 22.5 11.019 22.5 13.5C22.5 15.981 20.481 18 18 18Z" fill="#565ADD"/>
</g>
<defs>
<clipPath id="clip0_502_1150">
<rect width="36" height="36" fill="white"/>
</clipPath>
</defs>
</svg>
