<svg width="24" height="24" viewBox="0 0 24 24" fill="none" xmlns="http://www.w3.org/2000/svg">
<g id="comment-info 1" clip-path="url(#clip0_502_1211)">
<path id="Vector" d="M12.9998 6.99986C12.9998 7.55186 12.5518 7.99986 11.9998 7.99986C11.4478 7.99986 10.9998 7.55186 10.9998 6.99986C10.9998 6.44786 11.4478 5.99986 11.9998 5.99986C12.5518 5.99986 12.9998 6.44786 12.9998 6.99986ZM23.9998 19.4999V12.3549C23.9998 5.86886 19.0968 0.453857 12.8378 0.0278575C9.36881 -0.208143 5.96181 1.06386 3.50881 3.51986C1.05681 5.97686 -0.211187 9.37786 0.0288126 12.8539C0.469813 19.2079 6.10281 23.9999 13.1328 23.9999H19.4998C21.9808 23.9999 23.9998 21.9809 23.9998 19.4999ZM12.7698 1.02586C18.5068 1.41586 22.9998 6.39186 22.9998 12.3549V19.4999C22.9998 21.4299 21.4298 22.9999 19.4998 22.9999H13.1328C6.52881 22.9999 1.43781 18.7039 1.02781 12.7859C0.806813 9.59786 1.96881 6.47786 4.21681 4.22686C6.28681 2.15386 9.09481 0.999857 12.0168 0.999857C12.2668 0.999857 12.5188 1.00786 12.7698 1.02486V1.02586ZM12.9998 18.4999V11.4999C12.9998 10.6729 12.3268 9.99986 11.4998 9.99986H10.4998C10.2238 9.99986 9.99981 10.2239 9.99981 10.4999C9.99981 10.7759 10.2238 10.9999 10.4998 10.9999H11.4998C11.7748 10.9999 11.9998 11.2249 11.9998 11.4999V18.4999C11.9998 18.7759 12.2238 18.9999 12.4998 18.9999C12.7758 18.9999 12.9998 18.7759 12.9998 18.4999Z" fill="#565ADD"/>
</g>
<defs>
<clipPath id="clip0_502_1211">
<rect width="24" height="24" fill="white"/>
</clipPath>
</defs>
</svg>
