<svg width="24" height="25" viewBox="0 0 24 25" fill="none" xmlns="http://www.w3.org/2000/svg">
<g id="house-chimney 1" clip-path="url(#clip0_502_1213)">
<path id="Vector" d="M22.017 6.581L21 5.895V2.25C21 1.974 20.776 1.75 20.5 1.75C20.224 1.75 20 1.974 20 2.25V5.22L14.517 1.52C12.988 0.487999 11.011 0.488999 9.484 1.52L1.983 6.581C0.741 7.418 0 8.813 0 10.311V20.25C0 22.731 2.019 24.75 4.5 24.75H7.5C7.776 24.75 8 24.526 8 24.25V15.25C8 14.423 8.673 13.75 9.5 13.75H14.5C15.327 13.75 16 14.423 16 15.25V24.25C16 24.526 16.224 24.75 16.5 24.75H19.5C21.981 24.75 24 22.731 24 20.25V10.311C24 8.812 23.259 7.418 22.017 6.581ZM23 20.25C23 22.18 21.43 23.75 19.5 23.75H17V15.25C17 13.872 15.879 12.75 14.5 12.75H9.5C8.121 12.75 7 13.872 7 15.25V23.75H4.5C2.57 23.75 1 22.18 1 20.25V10.311C1 9.145 1.576 8.061 2.542 7.41L10.042 2.349C11.231 1.546 12.769 1.546 13.958 2.349L21.458 7.41C22.424 8.061 23 9.146 23 10.311V20.25Z" fill="#565ADD"/>
</g>
<defs>
<clipPath id="clip0_502_1213">
<rect width="24" height="24" fill="white" transform="translate(0 0.75)"/>
</clipPath>
</defs>
</svg>
