<svg width="18" height="18" viewBox="0 0 18 18" fill="none" xmlns="http://www.w3.org/2000/svg">
<g id="journal-alt 1" clip-path="url(#clip0_586_1453)">
<path id="Vector" d="M11.25 1.7535V0.375C11.25 0.168 11.082 0 10.875 0C10.668 0 10.5 0.168 10.5 0.375V1.527C10.3778 1.50975 10.2525 1.5 10.125 1.5H8.25V0.375C8.25 0.168 8.082 0 7.875 0C7.668 0 7.5 0.168 7.5 0.375V1.5H5.25V0.375C5.25 0.168 5.082 0 4.875 0C4.668 0 4.5 0.168 4.5 0.375V1.5H2.625C2.4975 1.5 2.37225 1.509 2.25 1.527V0.375C2.25 0.168 2.082 0 1.875 0C1.668 0 1.5 0.168 1.5 0.375V1.7535C0.61425 2.17575 0 3.08025 0 4.125V14.625C0 16.4858 1.51425 18 3.375 18H9.375C11.2358 18 12.75 16.4858 12.75 14.625V4.125C12.75 3.08025 12.1357 2.17575 11.25 1.7535ZM12 14.625C12 16.0725 10.8225 17.25 9.375 17.25H3.375C1.9275 17.25 0.75 16.0725 0.75 14.625V4.125C0.75 3.09075 1.5915 2.25 2.625 2.25H10.125C11.1585 2.25 12 3.09075 12 4.125V14.625ZM9.75 4.875C9.75 5.082 9.582 5.25 9.375 5.25H3.375C3.168 5.25 3 5.082 3 4.875C3 4.668 3.168 4.5 3.375 4.5H9.375C9.582 4.5 9.75 4.668 9.75 4.875ZM9.75 7.875C9.75 8.082 9.582 8.25 9.375 8.25H3.375C3.168 8.25 3 8.082 3 7.875C3 7.668 3.168 7.5 3.375 7.5H9.375C9.582 7.5 9.75 7.668 9.75 7.875ZM7.5 10.875C7.5 11.082 7.332 11.25 7.125 11.25H3.375C3.168 11.25 3 11.082 3 10.875C3 10.668 3.168 10.5 3.375 10.5H7.125C7.332 10.5 7.5 10.668 7.5 10.875ZM16.125 0C15.0915 0 14.25 0.84075 14.25 1.875V15.1935C14.25 15.885 14.5305 16.5607 15.0187 17.0497L15.8595 17.8905C15.933 17.964 16.029 18 16.125 18C16.221 18 16.317 17.9632 16.3905 17.8905L17.2313 17.0497C17.7203 16.5615 18 15.885 18 15.1935V1.875C18 0.84075 17.1585 0 16.125 0ZM17.25 15.1935C17.25 15.687 17.0497 16.1707 16.701 16.5195L16.125 17.0955L15.549 16.5195C15.2003 16.1707 15 15.6877 15 15.1935V1.875C15 1.25475 15.5048 0.75 16.125 0.75C16.7453 0.75 17.25 1.25475 17.25 1.875V15.1935Z" fill="#596386"/>
</g>
<defs>
<clipPath id="clip0_586_1453">
<rect width="18" height="18" fill="white"/>
</clipPath>
</defs>
</svg>
