<svg width="12" height="12" viewBox="0 0 12 12" fill="none" xmlns="http://www.w3.org/2000/svg">
<g id="pencil 1" clip-path="url(#clip0_502_1074)">
<path id="Vector" d="M11.497 2.5975C11.4915 2.564 11.3585 1.7665 10.808 1.2105C10.2525 0.6655 9.45196 0.533 9.41846 0.5275C9.35896 0.517 9.29896 0.53 9.24746 0.5615C9.18646 0.599 7.72396 1.518 4.72296 4.5045C1.55996 7.6525 0.740958 8.8955 0.707458 8.947C0.684958 8.982 0.670958 9.022 0.667958 9.0635L0.500958 11.206C0.495458 11.279 0.521958 11.3505 0.573458 11.4025C0.620458 11.4495 0.683958 11.4755 0.750458 11.4755C0.756958 11.4755 0.763458 11.4755 0.769958 11.475L2.92296 11.3085C2.96446 11.3055 3.00396 11.292 3.03896 11.2695C3.09046 11.2365 4.33896 10.421 7.50096 7.274C10.502 4.287 11.425 2.831 11.4625 2.7705C11.4945 2.719 11.507 2.658 11.4975 2.5985L11.497 2.5975ZM7.14746 6.919C4.37746 9.676 3.07746 10.6325 2.81696 10.815L1.02196 10.954L1.16096 9.1695C1.34496 8.909 2.30696 7.615 5.07496 4.86C5.96146 3.978 6.71396 3.277 7.33396 2.728C7.57596 2.784 8.19446 2.962 8.63146 3.391C9.06546 3.8165 9.24646 4.414 9.30446 4.654C8.75046 5.274 8.04196 6.0285 7.14746 6.919ZM9.69496 4.2095C9.57696 3.869 9.36046 3.4055 8.98146 3.0335C8.60296 2.6625 8.12996 2.4505 7.78346 2.335C8.68696 1.5605 9.23446 1.172 9.42946 1.04C9.62746 1.086 10.1105 1.2275 10.4545 1.5645C10.792 1.9055 10.936 2.387 10.9835 2.5855C10.851 2.7795 10.464 3.3205 9.69496 4.2095Z" fill="#8E8E8E"/>
</g>
<defs>
<clipPath id="clip0_502_1074">
<rect width="12" height="12" fill="white"/>
</clipPath>
</defs>
</svg>
