<svg width="24" height="24" viewBox="0 0 24 24" fill="none" xmlns="http://www.w3.org/2000/svg">
<g id="icons8-settings">
<path id="Vector" d="M12 2.25C11.119 2.25 10.2388 2.40824 9.39846 2.72461C9.23412 2.78658 9.09675 2.90426 9.01027 3.05713C8.62846 3.73044 8.32735 4.43291 8.03762 5.13867C7.28237 5.03474 6.5232 4.9442 5.74807 4.93799C5.61149 4.93698 5.47723 4.97329 5.35978 5.04299C5.24232 5.11269 5.14612 5.21314 5.08157 5.3335C3.88731 6.38723 3.08108 7.7902 2.76565 9.3457C2.69372 9.46213 2.65501 9.59602 2.65372 9.73286C2.65243 9.86971 2.6886 10.0043 2.75832 10.1221C3.1524 10.7878 3.61186 11.3983 4.07961 12C3.612 12.6019 3.15233 13.213 2.75832 13.8779C2.68917 13.9954 2.65331 14.1294 2.6546 14.2657C2.65589 14.4019 2.69428 14.5353 2.76565 14.6514C3.08089 16.209 3.88675 17.6149 5.08303 18.6694L5.08449 18.6724C5.1496 18.7912 5.24567 18.8902 5.36251 18.9588C5.47934 19.0274 5.61258 19.063 5.74807 19.062C6.5232 19.0558 7.28237 18.9653 8.03762 18.8613C8.32735 19.5671 8.62846 20.2696 9.01027 20.9429C9.09675 21.0957 9.23412 21.2134 9.39846 21.2754C11.0791 21.9081 12.9224 21.9081 14.603 21.2754C14.7674 21.2134 14.9048 21.0957 14.9912 20.9429C15.373 20.2696 15.6727 19.567 15.9624 18.8613C16.7181 18.9654 17.4778 19.0558 18.2534 19.062C18.3898 19.0627 18.5237 19.0263 18.6409 18.9566C18.7581 18.8869 18.854 18.7866 18.9185 18.6665C20.1143 17.6114 20.9228 16.2063 21.2373 14.6484C21.3077 14.5324 21.3452 14.3995 21.346 14.2638C21.3468 14.1281 21.3107 13.9947 21.2417 13.8779C20.8476 13.2122 20.3882 12.6017 19.9204 12C20.3886 11.398 20.8478 10.7875 21.2417 10.1221C21.3114 10.0043 21.3476 9.86971 21.3463 9.73286C21.345 9.59602 21.3063 9.46213 21.2344 9.3457C20.919 7.79105 20.1132 6.38845 18.9199 5.33496C18.8556 5.21433 18.7595 5.11358 18.642 5.04362C18.5245 4.97365 18.3902 4.93713 18.2534 4.93799C17.4778 4.94421 16.7181 5.03461 15.9624 5.13867C15.6727 4.43295 15.373 3.7304 14.9912 3.05713C14.9048 2.90426 14.7674 2.78658 14.603 2.72461C13.7627 2.40824 12.8811 2.25 12 2.25ZM12 3.75C12.6149 3.75 13.2243 3.88652 13.8194 4.08105C14.1935 4.77014 14.5361 5.46849 14.8052 6.19043C14.8662 6.3544 14.9826 6.49188 15.1343 6.57908C15.286 6.66629 15.4634 6.69773 15.6358 6.66797C16.3847 6.53761 17.1615 6.48519 17.9458 6.46435C18.8806 7.29396 19.5137 8.39646 19.7666 9.62109C19.3552 10.2876 18.9205 10.9324 18.4307 11.5195C18.3182 11.6544 18.2566 11.8244 18.2566 12C18.2566 12.1756 18.3182 12.3456 18.4307 12.4805C18.9202 13.068 19.3551 13.7125 19.7666 14.3789C19.5137 15.6035 18.8806 16.706 17.9458 17.5356C17.1615 17.5148 16.3847 17.4624 15.6358 17.332C15.4634 17.3023 15.286 17.3337 15.1343 17.4209C14.9826 17.5081 14.8662 17.6456 14.8052 17.8096C14.5361 18.5315 14.1935 19.2299 13.8194 19.9189C12.6292 20.308 11.3708 20.308 10.1807 19.9189C9.80658 19.2299 9.46537 18.5315 9.19631 17.8096C9.13525 17.6453 9.0186 17.5076 8.86662 17.4204C8.71464 17.3332 8.53691 17.3019 8.36428 17.332C7.61538 17.4624 6.83997 17.5148 6.05569 17.5356C5.12094 16.706 4.48638 15.6036 4.23342 14.3789C4.645 13.7128 5.08108 13.0689 5.57082 12.4805C5.6833 12.3456 5.74491 12.1756 5.74491 12C5.74491 11.8244 5.6833 11.6544 5.57082 11.5195C5.08103 10.9317 4.64655 10.2864 4.23489 9.61963C4.48811 8.39571 5.12141 7.29355 6.05569 6.46435C6.83997 6.48519 7.61538 6.53762 8.36428 6.66797C8.53691 6.6981 8.71464 6.66683 8.86662 6.5796C9.0186 6.49237 9.13525 6.35468 9.19631 6.19043C9.46537 5.46852 9.80658 4.77012 10.1807 4.08105C10.7758 3.88652 11.3851 3.75 12 3.75ZM12 8.25C10.8125 8.25 9.82644 8.72232 9.18899 9.43945C8.55153 10.1566 8.25002 11.0833 8.25002 12C8.25002 12.9167 8.55153 13.8434 9.18899 14.5605C9.82644 15.2777 10.8125 15.75 12 15.75C13.1875 15.75 14.1736 15.2777 14.8111 14.5605C15.4485 13.8434 15.75 12.9167 15.75 12C15.75 11.0833 15.4485 10.1566 14.8111 9.43945C14.1736 8.72231 13.1875 8.25 12 8.25ZM12 9.75C12.8125 9.75 13.3264 10.0277 13.689 10.4355C14.0515 10.8434 14.25 11.4167 14.25 12C14.25 12.5833 14.0515 13.1566 13.689 13.5645C13.3264 13.9723 12.8125 14.25 12 14.25C11.1875 14.25 10.6736 13.9723 10.3111 13.5645C9.94851 13.1566 9.75002 12.5833 9.75002 12C9.75002 11.4167 9.94851 10.8434 10.3111 10.4355C10.6736 10.0277 11.1875 9.75 12 9.75Z" fill="#565ADD"/>
</g>
</svg>
