<svg width="24" height="24" viewBox="0 0 24 24" fill="none" xmlns="http://www.w3.org/2000/svg">
<g id="subscription-alt 1" clip-path="url(#clip0_531_1334)">
<path id="Vector" d="M24 4.5V6.5C24 8.981 21.981 11 19.5 11H15.5C15.224 11 15 10.776 15 10.5C15 10.224 15.224 10 15.5 10H19.5C21.43 10 23 8.43 23 6.5V4.5C23 2.57 21.43 1 19.5 1H4.5C2.57 1 1 2.57 1 4.5V6.5C1 8.43 2.57 10 4.5 10H5.5C5.776 10 6 10.224 6 10.5C6 10.776 5.776 11 5.5 11H4.5C2.019 11 0 8.981 0 6.5V4.5C0 2.019 2.019 0 4.5 0H19.5C21.981 0 24 2.019 24 4.5ZM17.756 18.937L13 17.154V12.608C13 11.335 12.104 10.229 10.916 10.035C10.187 9.919 9.441 10.12 8.881 10.597C8.321 11.073 8 11.767 8 12.502V19.926L7.862 19.993L6.19 18.662C5.183 17.735 3.609 17.791 2.674 18.794C1.733 19.801 1.78 21.382 2.78 22.318L4.42 23.866C4.512 23.953 4.634 24.001 4.761 24.001C5.209 24.001 5.428 23.454 5.103 23.145L3.47 21.594C2.871 21.032 2.841 20.08 3.406 19.476C3.964 18.877 4.903 18.842 5.51 19.393C5.523 19.406 7.24 20.774 7.24 20.774C7.567 21.034 8.007 21.085 8.386 20.902C8.765 20.72 9 20.345 9 19.924V12.5C9 12.06 9.192 11.643 9.528 11.357C9.869 11.067 10.304 10.948 10.756 11.021C11.465 11.136 12 11.818 12 12.607V17.5C12 17.708 12.129 17.895 12.324 17.968L17.404 19.873C19.006 20.474 20 21.863 20 23.5C20 23.776 20.224 24 20.5 24C20.776 24 21 23.776 21 23.5C21 21.436 19.757 19.688 17.756 18.937Z" fill="#565ADD"/>
</g>
<defs>
<clipPath id="clip0_531_1334">
<rect width="24" height="24" fill="white"/>
</clipPath>
</defs>
</svg>
